HIERARCHY
ROOT Hips
{
	OFFSET -3.958830 18.904000 13.208200
	CHANNELS 6 Xposition Yposition Zposition Zrotation Yrotation Xrotation 
	JOINT LHipJoint
	{
		OFFSET 0.000000 0.000000 0.000000
		CHANNELS 3 Zrotation Yrotation Xrotation
		JOINT LeftUpLeg
		{
			OFFSET 1.800000 -1.400000 0.085000
			CHANNELS 3 Zrotation Yrotation Xrotation
			JOINT LeftLeg
			{
				OFFSET 2.215000 -6.000000 0.000000
				CHANNELS 3 Zrotation Yrotation Xrotation
				JOINT LeftFoot
				{
					OFFSET 2.500000 -6.900000 0.000000
					CHANNELS 3 Zrotation Yrotation Xrotation
					JOINT LeftToeBase
					{
						OFFSET 0.200000 -0.500000 1.950000
						CHANNELS 3 Zrotation Yrotation Xrotation
						End Site
						{
							OFFSET 0.000000 0.000000 0.000000
						}
					}
				}
			}
		}
	}
	JOINT RHipJoint
	{
		OFFSET 0.000000 0.000000 0.000000
		CHANNELS 3 Zrotation Yrotation Xrotation
		JOINT RightUpLeg
		{
			OFFSET -1.800000 -1.400000 0.085000
			CHANNELS 3 Zrotation Yrotation Xrotation
			JOINT RightLeg
			{
				OFFSET -2.215000 -6.000000 0.000000
				CHANNELS 3 Zrotation Yrotation Xrotation
				JOINT RightFoot
				{
					OFFSET -2.500000 -6.900000 0.000000
					CHANNELS 3 Zrotation Yrotation Xrotation
					JOINT RightToeBase
					{
						OFFSET -0.200000 -0.500000 1.950000
						CHANNELS 3 Zrotation Yrotation Xrotation
						End Site
						{
							OFFSET 0.000000 0.000000 0.000000
						}
					}
				}
			}
		}
	}
	JOINT LowerBack
	{
		OFFSET 0.000000 0.000000 0.000000
		CHANNELS 3 Zrotation Yrotation Xrotation
		JOINT Spine
		{
			OFFSET -0.087000 1.940000 -0.288900
			CHANNELS 3 Zrotation Yrotation Xrotation
			JOINT Spine1
			{
				OFFSET 0.000000 1.950000 0.060000
				CHANNELS 3 Zrotation Yrotation Xrotation
				JOINT Neck
				{
					OFFSET 0.000000 0.000000 0.000000
					CHANNELS 3 Zrotation Yrotation Xrotation
					JOINT Neck1
					{
						OFFSET 0.000000 1.600000 0.340000
						CHANNELS 3 Zrotation Yrotation Xrotation
						JOINT Head
						{
							OFFSET 0.000000 1.667000 -0.240000
							CHANNELS 3 Zrotation Yrotation Xrotation
							End Site
							{
								OFFSET 0.000000 0.000000 0.000000
							}
						}
					}
				}
				JOINT LeftShoulder
				{
					OFFSET 0.000000 0.000000 0.000000
					CHANNELS 3 Zrotation Yrotation Xrotation
					JOINT LeftArm
					{
						OFFSET 2.700000 1.550000 -0.730000
						CHANNELS 3 Zrotation Yrotation Xrotation
						JOINT LeftForeArm
						{
							OFFSET 5.450000 0.000000 0.000000
							CHANNELS 3 Zrotation Yrotation Xrotation
							JOINT LeftHand
							{
								OFFSET 3.450000 0.000000 0.000000
								CHANNELS 3 Zrotation Yrotation Xrotation
								JOINT LeftHandIndex1
								{
									OFFSET 0.750000 0.000000 0.000000
									CHANNELS 3 Zrotation Yrotation Xrotation
									End Site
									{
										OFFSET 0.000000 0.000000 0.000000
									}
								}
							}
						}
					}
				}
				JOINT RightShoulder
				{
					OFFSET 0.000000 0.000000 0.000000
					CHANNELS 3 Zrotation Yrotation Xrotation
					JOINT RightArm
					{
						OFFSET -2.700000 1.550000 -0.730000
						CHANNELS 3 Zrotation Yrotation Xrotation
						JOINT RightForeArm
						{
							OFFSET -5.450000 0.000000 0.000000
							CHANNELS 3 Zrotation Yrotation Xrotation
							JOINT RightHand
							{
								OFFSET -3.450000 0.000000 0.000000
								CHANNELS 3 Zrotation Yrotation Xrotation
								JOINT RightHandIndex1
								{
									OFFSET -0.750000 0.000000 0.000000
									CHANNELS 3 Zrotation Yrotation Xrotation
									End Site
									{
										OFFSET 0.000000 0.000000 0.000000
									}
								}
							}
						}
					}
				}
			}
		}
	}
}
MOTION
Frames: 14
Frame Time: 0.016667
0.292930 16.671830 -3.216990 -5.718331 -14.271380 -3.344838 -14.624012 12.624237 4.131136 15.037914 -1.981612 -24.273377 -18.706692 13.765994 29.370848 1.139251 6.795811 1.922094 0.777580 0.714690 0.791710 18.636448 -11.352426 2.765809 0.185750 1.947546 -9.599919 2.574319 -5.083946 23.910649 -0.712542 -3.509403 3.045940 -0.049250 -0.661160 0.213790 -4.682731 -0.066285 -8.179479 30.873917 -9.044538 24.924037 -27.525410 3.027804 2.481381 12.761513 -1.631036 -15.837905 -6.308922 -1.157728 53.992204 0.393410 -3.988280 -14.687980 -20.052231 -6.768967 3.678098 -48.646393 7.096627 -10.835900 -5.445602 -17.672190 -0.514252 -2.753915 3.375342 0.348920 -0.579990 0.712710 0.209990 -6.914475 14.471715 12.476211 15.481369 -4.620489 -11.995938 -46.687316 35.816765 -13.615409 2.905301 -1.881279 0.554590 -0.313690 -0.690730 0.102710 
0.259430 16.636630 -3.220660 -6.299509 -14.373134 -4.097184 -14.717630 12.702203 4.241459 16.221722 -1.672457 -24.812790 -18.617701 14.458155 31.051554 1.210911 7.145271 1.780010 0.805220 0.749870 0.814130 18.545892 -11.199301 2.792445 0.572091 2.117195 -8.841794 3.461974 -5.444013 24.982445 -0.769767 -3.683871 2.981053 -0.042520 -0.707930 0.222840 -4.416950 -0.390027 -8.351358 29.338201 -8.558544 27.172448 -24.942845 3.565457 1.148070 12.768927 -0.646745 -15.738762 -3.519069 -2.658337 55.017193 -0.185500 -4.208280 -15.847800 -21.276879 -6.687401 3.666579 -49.410699 7.868399 -11.419386 -5.780931 -18.032426 -0.516665 -2.716033 3.396171 0.361330 -0.606370 0.746280 0.213780 -5.794723 14.498083 12.437118 18.178107 -3.696117 -13.021391 -53.224087 35.642569 -16.835974 2.916099 -1.848258 0.578130 -0.340480 -0.716260 0.100990 
0.221120 16.594580 -3.214490 -6.876668 -14.273884 -4.379262 -14.853268 12.825363 4.376272 17.291042 -1.391606 -25.813506 -18.291057 15.080515 32.740811 1.280502 7.482996 1.648800 0.807420 0.739610 0.818190 18.423194 -10.957564 2.811352 0.984522 2.387477 -8.445592 4.602912 -5.869262 26.036703 -0.810205 -3.853516 2.911463 -0.060890 -0.740180 0.244010 -4.051551 -0.932355 -8.548252 27.447694 -7.635796 29.171786 -21.573948 4.349731 -1.322091 12.586563 -0.116267 -15.523656 -1.512767 -3.867932 55.668023 -0.873830 -4.480030 -16.041090 -22.349006 -5.483863 3.346807 -50.671942 9.007479 -12.030853 -6.753371 -18.454150 -0.450135 -2.700230 3.417166 0.371260 -0.624130 0.762620 0.212060 -4.434736 13.964637 12.329762 21.497728 -3.691210 -14.092466 -62.159138 38.520600 -22.651368 2.858516 -1.760549 0.597060 -0.385920 -0.726480 0.099480 
0.178200 16.559550 -3.200680 -7.324581 -14.035340 -4.439522 -15.043100 13.052630 4.497070 18.020484 -1.158689 -26.967480 -17.489916 15.476258 34.352969 1.323190 7.739746 1.553481 0.789620 0.689990 0.820380 18.247094 -10.644290 2.819797 1.367041 2.642566 -8.169008 5.769437 -6.287719 26.859049 -0.833163 -3.984315 2.873494 -0.101420 -0.765410 0.259320 -3.532618 -1.763510 -8.761028 24.814867 -6.344302 31.360289 -17.607100 5.664846 -5.142167 12.360279 0.350435 -15.404867 0.381781 -5.129368 56.713760 -2.300330 -4.649580 -15.747700 -23.844056 -3.338337 2.663888 -51.552929 10.765654 -12.511205 -8.247585 -18.953126 -0.267262 -2.691778 3.408706 0.392580 -0.636830 0.767770 0.205580 -2.558041 12.940928 12.365747 25.098866 -4.932001 -14.841736 -73.694746 43.120346 -31.830822 2.753584 -1.561326 0.600460 -0.424920 -0.726690 0.086670 
0.130300 16.529480 -3.176000 -7.564941 -13.550587 -3.961541 -15.276926 13.307974 4.606594 18.268209 -1.070244 -28.599349 -16.247969 15.673049 36.014323 1.338356 7.925403 1.484870 0.723490 0.587910 0.796040 18.035348 -10.297715 2.811430 1.643896 2.928473 -8.356624 7.016273 -6.717845 27.505006 -0.824804 -4.074326 2.855657 -0.169190 -0.776010 0.260810 -2.907758 -2.718668 -8.971351 21.414724 -4.663211 33.088661 -13.121166 7.628916 -10.043960 11.927831 0.827604 -15.241103 2.446915 -6.664012 57.414877 -4.368450 -4.655050 -15.115360 -24.866582 0.320321 1.482052 -52.395984 12.884494 -12.743072 -10.598199 -19.222384 0.093123 -2.717734 3.359241 0.412830 -0.639740 0.750640 0.176940 -0.752922 10.735577 12.506873 28.922723 -6.782798 -14.586486 -87.680433 47.680203 -45.182488 2.671797 -1.257042 0.583330 -0.454970 -0.694310 0.065770 
0.078260 16.503360 -3.144260 -7.633869 -12.786351 -3.025788 -15.487267 13.470470 4.669900 17.968269 -1.188466 -30.522715 -14.545325 15.572668 37.662779 1.327411 8.007471 1.453790 0.646950 0.476630 0.773690 17.852577 -10.045547 2.804411 1.935015 3.194618 -9.084501 7.970461 -7.059802 28.046933 -0.801248 -4.131427 2.846219 -0.237410 -0.779150 0.266390 -2.361945 -3.386922 -9.106639 17.828735 -2.815004 33.484396 -8.606971 9.779587 -14.378639 11.108283 1.789237 -15.021098 5.504945 -8.745821 57.207414 -7.033550 -4.271990 -13.948150 -25.335387 4.259285 0.347689 -52.944628 14.912834 -12.692448 -13.277983 -19.254130 0.562720 -2.766948 3.301925 0.422920 -0.626990 0.729920 0.144080 1.195751 7.544514 12.546157 32.684456 -8.695440 -13.304583 -103.188220 50.384335 -63.377285 2.741790 -1.073874 0.561460 -0.483350 -0.657210 0.041920 
0.029290 16.483940 -3.109290 -7.663907 -11.947985 -1.923256 -15.664696 13.549340 4.685586 17.344669 -1.438093 -32.400094 -12.570455 15.200015 39.190769 1.299886 8.004492 1.452523 0.589620 0.384120 0.774540 17.706943 -9.876643 2.799349 2.241480 3.408875 -10.007094 8.707174 -7.335313 28.420039 -0.782906 -4.171707 2.833237 -0.295090 -0.786100 0.287370 -1.915532 -3.793486 -9.145879 14.446470 -1.074856 33.077795 -4.326418 11.839294 -17.941231 10.109001 3.033304 -14.584614 9.033436 -10.996520 55.872987 -9.992970 -3.403510 -13.073950 -25.349033 8.408127 -0.804705 -53.271983 16.543441 -12.357511 -15.973385 -18.939689 1.073474 -2.822736 3.255817 0.432330 -0.608150 0.719350 0.115290 2.983841 3.607616 12.186449 36.376153 -10.536705 -11.982006 -118.092531 52.227943 -85.584863 2.941155 -1.250183 0.546280 -0.519730 -0.632950 0.015410 
-0.012340 16.467780 -3.077540 -7.643500 -11.073090 -0.989061 -15.787694 13.575542 4.652504 16.443153 -1.800016 -33.898873 -10.456216 14.556774 40.499254 1.247947 7.916966 1.477034 0.545570 0.316690 0.786760 17.610177 -9.794933 2.800054 2.514262 3.539447 -10.864379 9.174114 -7.553396 28.747328 -0.768963 -4.209858 2.815418 -0.330760 -0.794970 0.301420 -1.612054 -3.977027 -9.103254 11.644778 0.357120 32.115771 -0.598431 13.350385 -20.260518 9.064003 4.259401 -14.000775 12.011965 -13.013714 54.120623 -12.648500 -2.522720 -12.340470 -25.444955 11.634288 -1.593818 -53.504454 17.887631 -12.043480 -18.184285 -18.836913 1.541194 -2.872663 3.212986 0.439310 -0.586420 0.712640 0.085890 5.103346 0.005615 11.350072 39.593772 -12.766562 -11.943486 -131.664645 54.545636 -109.563055 3.056093 -1.623134 0.527620 -0.543420 -0.613590 -0.013950 
-0.048590 16.452810 -3.049620 -7.614730 -10.277583 -0.349275 -15.863010 13.569160 4.608906 15.576355 -2.169304 -34.978970 -8.557407 13.870409 41.620349 1.200517 7.820234 1.501994 0.528380 0.283660 0.816520 17.554923 -9.762970 2.804927 2.759620 3.604716 -11.491204 9.456118 -7.745341 29.096707 -0.771940 -4.253749 2.791962 -0.347880 -0.811720 0.316530 -1.433448 -4.028855 -9.037509 9.591550 1.417586 30.958165 2.425743 14.244901 -21.545485 8.086673 5.188165 -13.375195 13.965761 -14.576990 52.925215 -14.407490 -1.963290 -11.825710 -25.675135 13.810570 -2.031335 -53.975907 18.973683 -11.932320 -19.496474 -18.948948 1.853348 -2.910962 3.174632 0.448540 -0.571020 0.719530 0.061660 7.464515 -2.825175 10.314423 42.325579 -15.177396 -13.098769 -143.382959 57.716352 -132.299871 3.032196 -1.922681 0.519390 -0.560880 -0.607440 -0.041130 
-0.078500 16.441110 -3.024750 -7.597053 -9.540124 0.042512 -15.892872 13.564041 4.563510 14.742921 -2.511024 -35.640082 -6.897631 13.158979 42.486590 1.156596 7.696821 1.533173 0.525430 0.278310 0.839820 17.530803 -9.778617 2.820970 3.007161 3.575696 -11.834594 9.538586 -7.858711 29.294902 -0.783497 -4.272634 2.778799 -0.351390 -0.832320 0.323260 -1.361748 -3.995937 -8.985066 8.431239 2.045496 29.805232 4.471281 14.594502 -22.247061 7.278467 5.657108 -12.886525 14.807952 -15.714509 52.800274 -15.425800 -1.817450 -11.396920 -25.983892 15.144121 -2.208787 -54.552632 19.972729 -12.045260 -20.128109 -19.330922 2.039792 -2.925256 3.140996 0.462200 -0.567640 0.737010 0.048870 9.664836 -4.722284 9.461720 44.694660 -17.512118 -14.949850 -153.219876 61.971760 -151.770800 2.937386 -2.076250 0.516250 -0.566710 -0.608310 -0.058910 
-0.099140 16.432370 -3.000500 -7.664264 -8.715171 0.346592 -15.880083 13.527242 4.533214 14.014466 -2.856171 -36.084750 -5.556655 12.465490 43.054899 1.122614 7.556433 1.572489 0.535760 0.286010 0.872590 17.538575 -9.842943 2.853594 3.294751 3.479765 -12.027020 9.571304 -7.929563 29.305147 -0.797487 -4.270409 2.770377 -0.348690 -0.857140 0.329810 -1.396869 -3.822831 -8.952522 8.198232 2.314729 28.577546 5.508502 14.538521 -22.593615 6.619407 5.922913 -12.582430 15.245916 -16.762735 53.057734 -15.992050 -1.956080 -10.660890 -25.978571 16.002568 -2.250736 -55.194796 20.592227 -12.189075 -20.373736 -19.538711 2.101433 -2.930469 3.109648 0.473560 -0.570170 0.760140 0.041130 11.150325 -6.095224 8.882817 46.808650 -19.542497 -17.130493 -161.958365 67.480832 -167.445608 2.830577 -2.117543 0.520090 -0.573690 -0.621180 -0.071710 
-0.108870 16.429440 -2.974980 -7.613461 -7.853384 0.645594 -15.841819 13.464294 4.500668 13.203071 -3.213922 -36.288251 -4.563399 11.812117 43.226761 1.093333 7.378992 1.632304 0.562920 0.306700 0.920190 17.563797 -9.958131 2.885949 3.417607 3.354371 -12.206117 9.542088 -7.953405 29.182806 -0.806685 -4.257300 2.772933 -0.338030 -0.882600 0.335540 -1.491647 -3.514191 -8.907391 8.373830 2.474559 27.211827 5.719081 14.233721 -22.736640 6.288840 6.276733 -12.402999 15.989474 -17.917828 52.749763 -16.998820 -1.887020 -9.638340 -25.957057 16.520528 -2.241364 -55.603799 21.082964 -12.426622 -20.119305 -20.036893 2.128668 -2.923066 3.093052 0.476120 -0.569060 0.780820 0.044620 11.812806 -7.179957 8.540708 48.452565 -21.005537 -19.198011 -171.753493 73.295015 178.769006 2.729674 -2.072018 0.527480 -0.581680 -0.650520 -0.083480 
-0.106420 16.438180 -2.949380 -7.456124 -7.091349 0.846434 -15.790575 13.425117 4.466331 12.408174 -3.531646 -36.136993 -4.013573 11.265726 42.930566 1.062415 7.170209 1.702893 0.572980 0.317960 0.938300 17.591669 -10.095248 2.910807 3.345481 3.169099 -12.279409 9.432799 -7.922643 28.864766 -0.797045 -4.225204 2.789178 -0.330280 -0.894780 0.332810 -1.606466 -3.211913 -8.868127 8.860890 2.482683 26.047136 5.300809 13.847011 -22.882003 6.207974 6.444461 -12.352283 16.410570 -18.728003 52.456757 -17.915730 -1.861710 -8.350650 -25.667903 17.009585 -2.242763 -55.797243 21.509274 -12.613519 -19.942641 -20.770381 2.237533 -2.914681 3.085876 0.468100 -0.562430 0.786750 0.049360 11.592502 -8.016444 8.463451 49.389327 -22.173389 -21.017859 172.690706 77.480396 160.957796 2.634354 -1.879834 0.530000 -0.585400 -0.667030 -0.086650 
-0.096520 16.456870 -2.927450 -7.002278 -6.452128 0.903498 -15.737313 13.419874 4.426684 11.530173 -3.824673 -35.591283 -3.966647 10.871533 42.191617 1.040412 6.951301 1.788525 0.568760 0.311560 0.938120 17.611909 -10.249956 2.915779 2.924730 2.921277 -12.230341 9.240049 -7.845712 28.380543 -0.772398 -4.181336 2.810748 -0.330580 -0.886200 0.333140 -1.710967 -2.948830 -8.826926 9.342277 2.486528 25.060376 4.554610 13.425109 -22.873257 6.400395 6.388215 -12.302499 16.160009 -19.093343 52.121912 -18.942810 -1.969460 -6.815060 -25.246071 17.563896 -2.382268 -55.705906 21.645293 -12.611500 -19.789133 -21.662380 2.428052 -2.914911 3.090282 0.447530 -0.547280 0.778320 0.057600 10.680052 -8.711006 8.616080 49.394816 -23.051596 -22.074771 155.123903 78.393153 141.477611 2.586451 -1.525231 0.530350 -0.584270 -0.672560 -0.079850 
